<svg width="24" height="24" viewBox="0 0 24 24" fill="none" xmlns="http://www.w3.org/2000/svg">
<g clip-path="url(#clip0_117_7812)">
<path d="M3.40349 10.4078C7.33358 9.76041 10.4118 6.51132 11.0591 2.58366L11.2758 0.694384C11.3287 0.39357 11.1265 -0.022813 10.7463 0.0060629C7.77647 0.237103 4.97747 1.21664 3.41555 1.85444C2.64296 2.16965 2.13757 2.92298 2.13757 3.75811V9.91923C2.13757 10.285 2.46488 10.5618 2.82589 10.504L3.40349 10.4102V10.4078Z" fill="#E5E7EB"/>
<path d="M12.9537 2.58134C13.6011 6.51151 16.6792 9.75817 20.6094 10.4055L21.187 10.4994C21.548 10.5596 21.8753 10.2804 21.8753 9.91457V3.75345C21.8753 2.91832 21.3698 2.16742 20.5973 1.84978C19.0378 1.21198 16.2364 0.23245 13.2665 0.00140997C12.8863 -0.027474 12.6889 0.393682 12.7346 0.689723L12.9512 2.579L12.9537 2.58134Z" fill="#E5E7EB"/>
<path d="M20.6067 12.1312C15.2373 13.1901 12.744 16.7593 12.744 23.5173C12.744 23.8567 13.081 24.0901 13.3626 23.9024C15.8319 22.2369 21.2661 17.8905 21.8269 12.4513C21.8486 11.7654 20.9917 12.0879 20.6067 12.1312Z" fill="#E5E7EB"/>
<path d="M3.40539 12.1313C8.77474 13.1902 11.2681 16.7594 11.2681 23.5173C11.2681 23.8566 10.9311 24.0901 10.6495 23.9024C8.18031 22.237 2.74599 17.8904 2.18522 12.4513C2.16356 11.7654 3.02035 12.0879 3.40539 12.1313Z" fill="#E5E7EB"/>
</g>
<defs>
<clipPath id="clip0_117_7812">
<rect width="24" height="24" fill="white"/>
</clipPath>
</defs>
</svg>
