<svg width="24" height="24" viewBox="0 0 24 24" fill="none" xmlns="http://www.w3.org/2000/svg">
<g clip-path="url(#clip0_118_5414)">
<path d="M18.484 4.61225L20.5526 4.07959L20.568 4.10231L20.6202 16.5925L20.5526 16.6604L20.1264 16.6786L18.5082 16.4267L18.484 16.363V4.61225Z" fill="#7A3E65"/>
<path d="M6.52039 17.5281L6.52801 17.5286L11.9884 19.1153L12.0023 19.126L12.026 19.1449L12.0183 23.8993L12.0023 23.9195L6.52039 21.2564V17.5281Z" fill="#7A3E65"/>
<path d="M18.484 16.363L12.0112 17.9132L8.76138 17.1287L6.52039 17.5281L12.0023 19.126L20.4629 16.8354L20.5526 16.6604L18.484 16.363Z" fill="#CFB2C1"/>
<path d="M17.4841 6.34336L17.4314 6.28323L12.0612 4.72283L12.0022 4.74555L11.9483 4.71802L3.49806 7.1547L3.4519 7.21113L3.51973 7.24829L5.45217 7.53164L5.52048 7.50844L11.9933 5.95839L15.2431 6.74285L17.4841 6.34336Z" fill="#512843"/>
<path d="M5.52048 19.2591L3.4519 19.7584L3.44829 19.7465L3.36682 7.30292L3.4519 7.21094L5.52048 7.50825V19.2591Z" fill="#C17B9E"/>
<path d="M8.31323 14.4324L12.0023 14.8652L12.03 14.8238L12.045 9.05363L12.0023 9.00635L8.31323 9.43915V14.4324Z" fill="#7A3E65"/>
<path d="M15.6914 14.4324L12.0023 14.8652V9.00635L15.6914 9.43915V14.4324Z" fill="#C17B9E"/>
<path d="M17.4842 6.34329L12.0023 4.74548V-0.0480957L17.4842 2.61494V6.34329Z" fill="#C17B9E"/>
<path d="M12.0023 -0.0480957L1.72803 4.91188V18.9596L3.45193 19.7586V7.21106L12.0023 4.74548V-0.0480957Z" fill="#7A3E65"/>
<path d="M20.5527 4.07959V16.6604L12.0023 19.126V23.9196L22.2766 18.9595V4.9118L20.5527 4.07959Z" fill="#C17B9E"/>
</g>
<defs>
<clipPath id="clip0_118_5414">
<rect width="24" height="24" fill="white"/>
</clipPath>
</defs>
</svg>
