<svg width="24" height="24" viewBox="0 0 24 24" fill="none" xmlns="http://www.w3.org/2000/svg">
<g clip-path="url(#clip0_118_5364)">
<path d="M23.7139 12.2244C23.7139 11.2412 23.6342 10.5236 23.4615 9.77954H12.2335V14.2175H18.8241C18.6913 15.3204 17.9737 16.9814 16.3792 18.0975L16.3568 18.246L19.9069 20.9962L20.1529 21.0208C22.4117 18.9346 23.7139 15.8652 23.7139 12.2244Z" fill="#4285F4"/>
<path d="M12.2336 23.9176C15.4624 23.9176 18.1731 22.8545 20.153 21.0209L16.3793 18.0976C15.3695 18.8018 14.0141 19.2934 12.2336 19.2934C9.07121 19.2934 6.38715 17.2074 5.43035 14.324L5.29011 14.3359L1.59869 17.1927L1.55042 17.3269C3.51695 21.2334 7.55637 23.9176 12.2336 23.9176Z" fill="#34A853"/>
<path d="M5.43029 14.3238C5.17783 13.5797 5.03173 12.7824 5.03173 11.9586C5.03173 11.1347 5.17783 10.3375 5.41701 9.59342L5.41032 9.43494L1.67264 6.53223L1.55035 6.59039C0.739849 8.21149 0.27478 10.0319 0.27478 11.9586C0.27478 13.8853 0.739849 15.7056 1.55035 17.3267L5.43029 14.3238Z" fill="#FBBC05"/>
<path d="M12.2336 4.62403C14.4792 4.62403 15.9939 5.59402 16.8577 6.40461L20.2327 3.10928C18.1599 1.1826 15.4624 0 12.2336 0C7.55637 0 3.51695 2.68406 1.55042 6.59056L5.41707 9.59359C6.38715 6.7102 9.07121 4.62403 12.2336 4.62403Z" fill="#EB4335"/>
</g>
<defs>
<clipPath id="clip0_118_5364">
<rect width="24" height="24" fill="white"/>
</clipPath>
</defs>
</svg>
