<svg width="24" height="24" viewBox="0 0 24 24" fill="none" xmlns="http://www.w3.org/2000/svg">
<g clip-path="url(#clip0_118_5328)">
<path d="M10.2578 6.4914C10.9961 6.18848 11.8102 6.21688 12.5865 6.28315C13.7697 6.45354 14.7447 7.24869 15.4168 8.19531C16.1363 8.15745 16.8936 8.02492 17.5751 8.3089C18.6921 8.68755 19.6009 9.67203 19.8091 10.8458C19.8659 11.0257 19.8375 11.4327 20.1499 11.3475C20.7084 11.3286 21.3048 11.2529 21.8349 11.4895C23.0087 11.9155 23.9269 13.0515 23.9932 14.3105C24.0784 15.6357 23.3589 16.8758 22.1757 17.4627C21.4846 17.8697 20.6516 17.7372 19.8849 17.7561C19.7239 17.3302 19.5725 16.8758 19.2412 16.535C18.6827 15.9292 17.8875 15.6452 17.1491 15.3233C17.6603 14.6702 18.02 13.8466 17.878 12.9947C17.7266 11.5842 16.3635 10.4293 14.9435 10.5524C13.4573 10.5524 12.1699 11.9534 12.2741 13.4301C12.2457 14.1306 12.6338 14.7459 12.984 15.3233C12.3025 15.6073 11.6493 15.9481 11.034 16.3551C10.6743 16.2226 10.324 16.0712 9.98326 15.9008C10.2672 15.4085 10.608 14.8974 10.5796 14.301C10.7122 13.0136 9.54782 11.8398 8.28882 11.8019C6.99195 11.7073 5.78028 12.8621 5.78028 14.159C5.75188 14.8027 6.0832 15.3707 6.38612 15.9008C5.48683 16.2699 4.48342 16.7433 4.17103 17.7372C3.46107 17.7467 2.70378 17.8413 2.04115 17.5289C0.924141 17.0935 0.147917 16.0712 0.0248568 14.8879C-0.192865 13.2597 1.0472 11.6031 2.66592 11.3286C3.28122 11.2434 3.90598 11.3286 4.50235 11.4517C5.03246 10.2495 6.36719 9.54897 7.65458 9.58684C7.91964 8.20478 8.91358 7.02151 10.2578 6.4914Z" fill="#111928"/>
</g>
<defs>
<clipPath id="clip0_118_5328">
<rect width="24" height="24" fill="white"/>
</clipPath>
</defs>
</svg>
