<svg width="24" height="24" viewBox="0 0 24 24" fill="none" xmlns="http://www.w3.org/2000/svg">
<g clip-path="url(#clip0_117_7860)">
<path fill-rule="evenodd" clip-rule="evenodd" d="M13.2001 0.172594L12.7067 6.22837C12.4734 6.20181 12.2401 6.18853 12.0001 6.18853C11.7001 6.18853 11.4067 6.20845 11.1201 6.25493L10.8401 3.32C10.8334 3.22704 10.9067 3.14736 11.0001 3.14736H11.5001L11.2601 0.179235C11.2534 0.0862731 11.3267 0.0065918 11.4134 0.0065918H13.0467C13.1401 0.0065918 13.2134 0.0862731 13.2001 0.179235V0.172594ZM9.08006 0.471399C9.0534 0.385078 8.96006 0.331957 8.8734 0.365158L7.34006 0.922926C7.2534 0.956127 7.2134 1.05573 7.2534 1.13541L8.50006 3.84457L8.02673 4.01722C7.94006 4.05042 7.90006 4.15002 7.94006 4.2297L9.2134 6.89238C9.6734 6.64006 10.1734 6.44749 10.7001 6.32797L9.08673 0.471399H9.08006ZM5.32006 2.15799L8.84673 7.11151C8.40006 7.40367 7.9934 7.74896 7.64673 8.14736L5.5334 6.07565C5.46673 6.00925 5.4734 5.90301 5.54006 5.84325L5.92673 5.52452L3.82673 3.40633C3.76006 3.33993 3.76673 3.23368 3.84007 3.17392L5.08673 2.13143C5.16006 2.07166 5.26006 2.08495 5.3134 2.15799H5.32006ZM2.36007 5.02651C2.28673 4.97339 2.18007 4.99995 2.1334 5.07963L1.32007 6.48734C1.2734 6.56702 1.30673 6.66662 1.38673 6.70646L4.0934 7.98136L3.84007 8.41297C3.7934 8.49265 3.82673 8.59889 3.9134 8.63209L6.60673 9.86051C6.80006 9.3625 7.06006 8.89769 7.38006 8.47937L2.36007 5.02651ZM0.366732 8.85121C0.380066 8.75825 0.473399 8.70513 0.560065 8.72505L6.46006 10.2589C6.30673 10.7569 6.22006 11.2815 6.20673 11.826L3.2534 11.5869C3.16007 11.5803 3.0934 11.494 3.1134 11.401L3.20007 10.9096L0.220066 10.6308C0.126732 10.6241 0.0667322 10.5378 0.0800655 10.4448L0.360066 8.84457L0.366732 8.85121ZM0.146732 12.822C0.0533989 12.8286 -0.00660111 12.915 0.00673222 13.0079L0.293399 14.6082C0.306732 14.7011 0.400066 14.7543 0.486732 14.7343L3.38007 13.984L3.46673 14.4754C3.48006 14.5683 3.5734 14.6215 3.66006 14.6015L6.5134 13.818C6.34673 13.3266 6.24006 12.8021 6.2134 12.2642L0.140066 12.822H0.146732ZM1.0934 17.0318C1.04673 16.9521 1.08007 16.8525 1.16007 16.8127L6.66673 14.2098C6.8734 14.7011 7.1534 15.1593 7.48673 15.571L5.0734 17.2841C5.00006 17.3373 4.8934 17.3173 4.84673 17.2377L4.5934 16.7994L2.1334 18.4926C2.06007 18.5458 1.9534 18.5192 1.90673 18.4395L1.08673 17.0318H1.0934ZM7.76673 15.8897L3.48006 20.2124C3.4134 20.2788 3.42006 20.3851 3.4934 20.4448L4.74673 21.4873C4.82006 21.5471 4.92006 21.5338 4.9734 21.4608L6.70673 19.0305L7.0934 19.3559C7.16673 19.4156 7.2734 19.4023 7.32673 19.3227L9.00673 16.8924C8.5534 16.6135 8.1334 16.2749 7.7734 15.8897H7.76673ZM6.92006 22.8286C6.8334 22.7954 6.7934 22.6958 6.8334 22.6162L9.3734 17.0916C9.84006 17.3306 10.3467 17.5099 10.8734 17.6095L10.1267 20.4648C10.1067 20.5511 10.0067 20.6042 9.92006 20.571L9.44673 20.3984L8.6534 23.2735C8.62673 23.3598 8.5334 23.413 8.44673 23.3798L6.9134 22.822L6.92006 22.8286ZM11.2934 17.6826L10.8001 23.7383C10.7934 23.8313 10.8667 23.911 10.9534 23.911H12.5867C12.6801 23.911 12.7534 23.8313 12.7401 23.7383L12.5001 20.7702H13.0001C13.0934 20.7702 13.1667 20.6905 13.1601 20.5976L12.8801 17.6626C12.5934 17.7091 12.3001 17.729 12.0001 17.729C11.7601 17.729 11.5267 17.7158 11.2934 17.6826ZM17.1734 1.28813C17.2134 1.20181 17.1734 1.10885 17.0867 1.07565L15.5534 0.51788C15.4667 0.484679 15.3734 0.5378 15.3467 0.624122L14.5534 3.49929L14.0801 3.32664C13.9934 3.29344 13.9001 3.34657 13.8734 3.43289L13.1267 6.28813C13.6601 6.39437 14.1601 6.57366 14.6267 6.80606L17.1734 1.28813ZM20.5201 3.69849L16.2334 8.0212C15.8734 7.63607 15.4601 7.29743 15.0001 7.01854L16.6801 4.58826C16.7334 4.51522 16.8401 4.4953 16.9134 4.55506L17.3001 4.88043L19.0334 2.45015C19.0867 2.37711 19.1934 2.36383 19.2601 2.42359L20.5134 3.46609C20.5867 3.52585 20.5867 3.63209 20.5267 3.69849H20.5201ZM22.8401 7.09823C22.9267 7.05838 22.9534 6.95878 22.9067 6.8791L22.0867 5.4714C22.0401 5.39172 21.9334 5.3718 21.8601 5.41828L19.4001 7.11151L19.1467 6.6799C19.1001 6.60022 18.9934 6.57366 18.9201 6.63342L16.5067 8.34657C16.8401 8.75825 17.1134 9.21642 17.3267 9.70779L22.8334 7.10487L22.8401 7.09823ZM23.7067 9.30274L23.9867 10.903C24.0001 10.996 23.9401 11.0756 23.8467 11.0889L17.7734 11.6533C17.7467 11.1088 17.6401 10.5909 17.4734 10.0996L20.3267 9.31602C20.4134 9.28946 20.5067 9.34922 20.5201 9.44218L20.6067 9.93355L23.5001 9.18322C23.5867 9.1633 23.6801 9.21642 23.6934 9.30938L23.7067 9.30274ZM23.4334 15.1792C23.5201 15.1992 23.6134 15.146 23.6267 15.0531L23.9067 13.4528C23.9201 13.3598 23.8601 13.2802 23.7667 13.2669L20.7867 12.988L20.8734 12.4966C20.8867 12.4037 20.8267 12.324 20.7334 12.3107L17.7801 12.0717C17.7667 12.6162 17.6801 13.1407 17.5267 13.6387L23.4267 15.1726L23.4334 15.1792ZM21.8601 18.8313C21.8134 18.911 21.7067 18.9309 21.6334 18.8844L16.6134 15.4316C16.9334 15.0132 17.1934 14.5484 17.3867 14.0504L20.0801 15.2788C20.1667 15.3187 20.2001 15.4183 20.1534 15.498L19.9001 15.9296L22.6067 17.2045C22.6867 17.2443 22.7201 17.3439 22.6734 17.4236L21.8601 18.8313ZM15.1467 16.7928L18.6734 21.7463C18.7267 21.8193 18.8334 21.8326 18.9001 21.7729L20.1467 20.7304C20.2201 20.6706 20.2201 20.5644 20.1601 20.498L18.0601 18.3798L18.4467 18.061C18.5201 18.0013 18.5201 17.895 18.4534 17.8286L16.3401 15.7569C15.9867 16.1553 15.5867 16.5073 15.1401 16.7928H15.1467ZM15.1134 23.5391C15.0267 23.5723 14.9334 23.5192 14.9067 23.4329L13.2934 17.5763C13.8201 17.4568 14.3201 17.2642 14.7801 17.0119L16.0534 19.6746C16.0934 19.7609 16.0534 19.8605 15.9667 19.8871L15.4934 20.0597L16.7401 22.7689C16.7801 22.8552 16.7401 22.9482 16.6534 22.9814L15.1201 23.5391H15.1134Z" fill="#E5E7EB"/>
</g>
<defs>
<clipPath id="clip0_117_7860">
<rect width="24" height="24" fill="white"/>
</clipPath>
</defs>
</svg>
